<svg width="20" height="20" xmlns="http://www.w3.org/2000/svg" xmlns:xlink="http://www.w3.org/1999/xlink"><defs><circle id="a" cx="10" cy="10" r="10"/></defs><g fill="none" fill-rule="evenodd"><mask id="b" fill="#fff"><use xlink:href="#a"/></mask><use fill-opacity=".1" fill="#2D3135" xlink:href="#a"/><g mask="url(#b)" fill="currentColor"><path d="M0 0h20v20H0z"/></g><path d="M4 4h12v12H4z"/><path d="M14.5 8.5v5.996a.5.5 0 01-.496.504H5.996a.497.497 0 01-.496-.496V5.496c0-.269.224-.496.499-.496H11v3a.5.5 0 00.5.5h3zm0-1H12V5.002L14.5 7.5zM8 7.5v1h1.5v-1H8zm0 3v1h4v-1H8z" fill="#FFF" fill-rule="nonzero"/></g></svg>