<svg width="20" height="20" xmlns="http://www.w3.org/2000/svg" xmlns:xlink="http://www.w3.org/1999/xlink"><defs><circle id="a" cx="10" cy="10" r="10"/></defs><g fill="none" fill-rule="evenodd"><mask id="b" fill="#fff"><use xlink:href="#a"/></mask><use fill-opacity=".1" fill="#2D3135" xlink:href="#a"/><g mask="url(#b)" fill="currentColor"><path d="M0 0h20v20H0z"/></g><path d="M4 4h12v12H4z"/><path d="M5.4 6.6L7.5 8l2.093-2.93a.5.5 0 01.814 0L12.5 8l2.1-1.4a.5.5 0 01.774.475l-.822 6.983a.5.5 0 01-.496.442H5.944a.5.5 0 01-.497-.442l-.822-6.984A.5.5 0 015.4 6.6zm4.6 4.9a1 1 0 100-2 1 1 0 000 2z" fill="#FFF" fill-rule="nonzero"/></g></svg>