<svg width="318" height="242" xmlns="http://www.w3.org/2000/svg" xmlns:xlink="http://www.w3.org/1999/xlink"><defs><linearGradient x1="50%" y1="0%" x2="50%" y2="100%" id="c"><stop stop-color="#F2F2F2" offset="0%"/><stop stop-color="#D8D8D8" offset="100%"/></linearGradient><linearGradient x1="99.168%" y1="1.326%" x2="41.433%" y2="93.371%" id="d"><stop stop-color="#7B9ED4" offset="0%"/><stop stop-color="#A0B9E0" offset="100%"/></linearGradient><linearGradient x1="96.771%" y1="5.148%" x2="41.433%" y2="93.371%" id="e"><stop stop-color="#7197D0" offset="0%"/><stop stop-color="#A4BCE1" offset="100%"/></linearGradient><linearGradient x1="50%" y1="0%" x2="50%" y2="100%" id="f"><stop stop-color="#5D8ED8" offset="0%"/><stop stop-color="#A2BBE1" offset="100%"/></linearGradient><linearGradient x1="0%" y1="0%" x2="88.727%" y2="90.122%" id="g"><stop stop-color="#7197D1" offset="0%"/><stop stop-color="#C8D7ED" offset="100%"/></linearGradient><linearGradient x1="0%" y1="0%" x2="88.727%" y2="90.122%" id="h"><stop stop-color="#7398D1" offset="0%"/><stop stop-color="#D1DDF0" offset="100%"/></linearGradient><linearGradient x1="0%" y1="0%" x2="88.727%" y2="90.122%" id="i"><stop stop-color="#A3BBE0" offset="0%"/><stop stop-color="#C4D3EB" offset="100%"/></linearGradient><radialGradient cx="50%" cy="4.612%" fx="50%" fy="4.612%" r="95.388%" gradientTransform="matrix(0 1 -.62015 0 .529 -.454)" id="a"><stop stop-color="#EDF2F9" offset="0%"/><stop stop-color="#EDF2F9" stop-opacity="0" offset="100%"/></radialGradient><path d="M35.942 104C13.479 93.02 0 78.978 0 63.675 0 28.508 71.186 0 159 0c87.813 0 159 28.508 159 63.675 0 15.303-13.48 29.344-35.942 40.325H35.942z" id="b"/></defs><g fill="none" fill-rule="evenodd"><use fill="url(#a)" xlink:href="#b" transform="translate(0 138)"/><g transform="translate(106 3)"><ellipse fill-opacity=".05" fill="#000" cx="47.347" cy="166.488" rx="43.107" ry="8.49"/><ellipse stroke="#C0C1C4" stroke-width="9" cx="91.867" cy="108.248" rx="17.667" ry="17.688"/><path d="M4 84.192h85.28a4 4 0 014 4v38.75c0 23.609-19.14 42.748-42.749 42.748H42.75C19.139 169.69 0 150.551 0 126.941V88.192a4 4 0 014-4z" fill="url(#c)"/><path d="M34.597 120.192a2.337 2.337 0 11-4.671 0 2.337 2.337 0 114.67 0m29.106 0a2.337 2.337 0 11-4.671 0 2.337 2.337 0 114.67 0" fill="#546172"/><path d="M39.707 131.609c.945 2.223 3.781 3.838 7.133 3.838 3.291 0 6.085-1.557 7.08-3.719" stroke="#546172" stroke-width="3" stroke-linecap="round"/><path d="M11.307 84.192h5.653v12.739a2.827 2.827 0 11-5.653 0V84.192z" fill="#C0C1C4"/><path d="M21.2 93.388a2.12 2.12 0 10-4.24 0v-9.196h4.24v9.196z" fill="#C0C1C4"/><path d="M21.2 84.192h5.653v18.399a2.827 2.827 0 11-5.653 0V84.192z" fill="#C0C1C4"/><path d="M49.54 75.756c-.37-8.09 3.234-12.928 10.809-14.513" stroke="url(#d)" stroke-width="6" stroke-linecap="round" stroke-linejoin="round"/><path d="M34.941 75.864c.449-15.973 9.214-24.978 26.298-27.014C77.322 46.934 88.58 34.47 87.17 16.674" stroke="url(#e)" stroke-width="6" stroke-linecap="round" stroke-linejoin="round"/><path d="M59.067 36.937c8.46-2.535 13.38-7.801 14.762-15.801 2.073-12-4.835-20.43-14.512-21.079-9.677-.649-17.072 4.262-18.384 12.73-1.027 6.62 1.98 11.424 5.566 13.253 4.518 2.305 15.037 1.772 16.355-9.226" stroke="url(#f)" stroke-width="6" stroke-linecap="round" stroke-linejoin="round"/></g><path d="M66.874 74.761l-7.748 2.673a1 1 0 01-1.267-1.284l2.71-7.535a1 1 0 00-.027-.744l-3.826-8.627a1 1 0 011.306-1.325l8.861 3.77a1 1 0 00.718.024l7.747-2.672a1 1 0 011.268 1.284l-2.71 7.535a1 1 0 00.027.744l3.825 8.627a1 1 0 01-1.305 1.325l-8.862-3.77a1 1 0 00-.717-.025z" fill="url(#g)" transform="rotate(45 63.616 69.737)"/><path d="M267.54 103.711l-5.044 1.74a1 1 0 01-1.267-1.284l1.757-4.887a1 1 0 00-.027-.743l-2.48-5.594a1 1 0 011.305-1.326l5.765 2.452a1 1 0 00.718.026l5.043-1.74a1 1 0 011.267 1.284l-1.757 4.887a1 1 0 00.027.743l2.48 5.594a1 1 0 01-1.305 1.326l-5.765-2.452a1 1 0 00-.718-.026z" fill="url(#h)" transform="rotate(45 264.282 100.403)"/><path d="M236.787 48.078l-2.079.717a1 1 0 01-1.267-1.284l.713-1.983a1 1 0 00-.026-.744l-1.006-2.268a1 1 0 011.305-1.326l2.37 1.008a1 1 0 00.717.026l2.079-.717a1 1 0 011.267 1.283l-.713 1.983a1 1 0 00.027.744l1.006 2.268a1 1 0 01-1.306 1.326l-2.37-1.008a1 1 0 00-.717-.025z" fill="url(#i)" transform="rotate(45 233.53 46.65)"/></g></svg>