<svg class="icon" viewBox="0 0 1024 1024" xmlns="http://www.w3.org/2000/svg" width="512" height="512"><defs><style/></defs><path d="M787.692 748.308V512h-78.769v236.308h-78.77V512h-78.768v236.308h-78.77V512h-78.769v236.308h-78.77V512h-78.768v236.308h-39.385v78.769h630.154v-78.77zm15.754-429.293L527.754 200.862c-11.816-3.939-19.692-3.939-31.508 0L220.554 319.015c-15.754 3.939-23.63 19.693-23.63 35.447v78.769c0 23.63 15.753 39.384 39.384 39.384h551.384c23.631 0 39.385-15.753 39.385-39.384v-78.77c0-15.753-7.877-31.507-23.63-35.446zM512 393.846c-23.63 0-39.385-15.754-39.385-39.384S488.37 315.077 512 315.077s39.385 15.754 39.385 39.385S535.63 393.846 512 393.846z" fill="#D7D9DC"/></svg>