<svg xmlns="http://www.w3.org/2000/svg" xmlns:xlink="http://www.w3.org/1999/xlink" width="63" height="24" version="1.1" viewBox="0 0 63 24"><title>tag</title><desc>Created with Sketch.</desc><g id="不良资产平台" fill="none" fill-rule="evenodd" stroke="none" stroke-width="1"><g id="列表-状态" transform="translate(-510.000000, -673.000000)"><g id="tag备份-9" transform="translate(541.500000, 684.714286) rotate(-360.000000) translate(-541.500000, -684.714286) translate(495.000000, 640.714286)"><g id="tag" transform="translate(46.548693, 43.991048) rotate(-22.000000) translate(-46.548693, -43.991048) translate(10.048693, 11.491048)"><path id="形状" fill="#86CA64" fill-opacity=".8" fill-rule="nonzero" d="M13.1061691,26.8086644 C11.1979814,27.8764888 6.63999812,28.8621973 4.66365514,28.4119764 C6.05110116,26.9006666 8.63707135,27.5636767 9.98791414,26.5107999 C11.2203912,26.310817 12.5318724,25.9895232 13.1061691,26.8086644 L13.1061691,26.8086644 Z M23.1077599,25.0669884 L15.0910968,26.7712719 L14.8173921,25.4847072 C17.1529221,25.5155644 21.3961691,23.7041779 23.1077599,25.0669884 Z M29.8994891,22.2783628 C30.4306222,22.8418041 31.9864794,21.8142482 32.2871217,22.7318134 C32.8424273,22.5670494 32.559123,21.8549208 33.0053984,21.6183306 C42.088106,19.7271183 53.9788251,17.1323488 64.2439153,14.9786236 C65.3917544,16.3992513 64.5024168,19.7730307 66.1327848,22.0697409 C66.2435478,22.6689361 65.6311086,22.796086 65.4145991,23.1820834 L68.3060195,36.7849119 C63.2097684,37.6156321 57.2297453,39.6432536 52.3348325,39.7950324 C53.0262896,38.8104699 53.8331886,39.0075645 54.89249,39.251667 C55.6158772,39.0918307 55.4774159,38.3680844 55.975891,38.0612942 C59.0167871,37.5572011 64.6640594,36.2301628 67.6670995,35.5763774 C66.1473788,28.8294203 65.145066,23.6198525 63.603961,16.4594109 C52.1298057,18.7700005 40.2731266,21.6743697 29.0383362,23.6145586 C28.4258632,22.5807425 29.9269222,22.9294348 29.9001551,22.2786455 L29.8994891,22.2783628 Z M26.9371996,24.2184753 C27.426742,24.0206873 28.7312396,23.4936361 28.5818153,23.5540074 C28.0922729,23.7517953 26.7877753,24.2788466 26.9371996,24.2184753 L26.9371996,24.2184753 Z M5.60448437,29.7482759 C7.16192219,36.6322901 8.18652315,41.6115825 9.83793033,47.8677603 C16.8891676,46.7802097 24.4934839,44.2276587 31.1070854,43.7313235 C34.5338569,42.8329505 37.040659,41.8288182 40.7583048,41.6886253 C41.3157863,41.0826486 44.1559483,40.0339202 44.3467719,41.5018525 C44.3109095,42.5029538 42.9823015,41.8026187 42.5204028,41.8899146 C31.5549376,45.1140231 20.535242,46.6854874 8.83276075,49.4265779 C7.52905592,42.6993932 5.49837259,35.1507464 5.05670685,29.864751 L5.60448437,29.7482759 Z M47.4701619,39.8692611 C48.1239309,40.2910043 49.9669122,39.8989894 50.3935091,39.2476738 C50.3908448,39.6576313 50.7278098,39.5424569 51.0193264,39.4991691 L51.2145169,40.4179549 C49.5318114,40.0703672 48.5699129,40.9291299 46.8302077,41.3500485 L46.6343512,40.43098 C46.9625338,40.2763137 47.7891982,40.4472133 47.4701619,39.8692611 L47.4701619,39.8692611 Z" transform="translate(36.484837, 32.202601) rotate(34.000000) translate(-36.484837, -32.202601)"/><polygon id="矩形" fill="#DCF7CF" fill-opacity=".8" points="8.946 23.99 64.002 23.99 64.002 40.516 8.946 40.516" transform="translate(36.474299, 32.253090) rotate(22.000000) translate(-36.474299, -32.253090)"/><text id="拍卖中" fill="#86CA64" font-family="PingFangSC-Regular, PingFang SC" font-size="10" font-weight="normal" transform="translate(36.380473, 31.765458) rotate(22.000000) translate(-36.380473, -31.765458)"><tspan x="21.38" y="35.765">拍卖中</tspan></text></g></g></g></g></svg>