<svg width="140" height="22" xmlns="http://www.w3.org/2000/svg"><path d="M6.484 6.094l1.563-.235-.156.625h6.953v1.641H11.25v2.656h3.828v1.64H11.25v4.298h1.875v-2.89h1.719v4.53H5.78v-4.53H7.5v2.89h2.031v-4.297H5.625v-1.64h3.906V8.124H7.578l-.234 1.563-1.719.546.86-4.14zm0-3.594l1.641-.234-.234.859h10.312v1.64l-.156 14.063H15.39v-1.797h.859l.078-12.187H7.5l-.156.625-1.719.468.86-3.437zm-3.28 16.328l-1.954-.39 1.953-6.094L5 12.813l-1.797 6.015zM1.327 9.141l.703-1.72 2.813 2.032-.625 1.797-2.89-2.11zm.39-4.688l.626-1.797 2.812 2.031-.625 1.72L1.72 4.452zM26.25 18.828h-1.719V16.25l-3.125 2.578v-2.187l3.125-2.5V8.594h-1.328l-.156 3.515-1.797 1.797.625-9.765 1.64-1.094-.234 3.828h1.25V2.656h1.719v4.219h1.328v1.719H26.25v4.14l1.328-1.093-.234 2.187-1.094.938v4.062zm1.797-9.297V7.734h5.156V5.156h-4.922V3.36h4.922V2.266H35v1.093h3.516v1.797H35v2.578h3.672v1.797H28.047zm.156 3.985v-1.797h7.266v-1.172h1.797v1.172h1.406v1.797h-1.406v5.312h-4.922v-1.797h3.125v-3.515h-7.266zm1.406 2.03l.547 2.735-1.718.469-.625-2.89 1.796-.313zm28.203-.155H55.86v-2.579H44.141v2.5h-1.953v-4.218h15.624v4.297zM47.892 2.344l1.953-.156-.39.78h8.827v1.72L56.953 6.64l-1.797-.391 1.094-1.563h-7.656l-.938 1.875-1.797-.312 2.032-3.906zm9.609 7.969l-4.766-1.72-7.109 1.641.547-1.875 5.625-1.25.234-1.171 1.875-.313-.312 1.563 4.687 1.64-.781 1.485zm-8.36 5.468V14.61h1.797v2.422l-9.14 1.797.39-1.875 6.954-1.172zm4.063.547L58.36 17.5l-1.406 1.328-5.625-1.328 1.875-1.172zm-9.766-6.094l-1.796-.468 2.109-3.36 1.719.625-2.032 3.203zm.157-7.812l2.11 2.11-1.72.78-2.343-2.343 1.953-.547zm34.14 7.031v4.14H63.906v.86h13.907v4.375H62.108V9.453h15.625zm.625-.625h-1.953v-.547H63.672v.547h-1.953V6.797h7.5l-.313-.781 1.953-.157.313.938h7.187v2.031zm-15.625-2.5l-1.328-.937 1.875-2.657 2.032-.156-.391.547H70v1.484h-2.656l1.719 1.016-2.032.469-2.11-1.485h-1.015l-1.172 1.72zm8.828-.39l-1.406-.86 1.485-2.344 2.03-.156-.39.547h5.078v1.484h-2.656l1.953 1.172-2.031.469-2.344-1.64h-.937l-.781 1.327zm4.532 11.406v-1.407H63.906v1.407h12.188zm-12.188-5.157h12.11v-1.25h-12.11v1.25zm22.969-.078V2.97h11.484v9.14h-5.234v1.485h5.156v1.719h-5.156v1.718h5.547v1.797H85.625v-1.797h5.86v-1.718h-5v-1.72h5V12.11h-4.61zm-5.625 4.844l1.563-1.172v-5h-1.407V8.984h1.406V5.078h-1.484V3.203h4.766v1.875h-1.64v3.906h1.405v1.797h-1.406v3.672l1.328-1.015v2.187l-4.062 3.203-.469-1.875zm14.453-8.515h-2.578v1.953h3.438V4.766h-3.438v1.953h2.578v1.718zm-4.219 1.953V8.437h-2.89v1.954h2.89zm0-3.672V4.766h-2.89v1.953h2.89zm17.657 7.578V5.078h-6.797V3.125h15.312v1.953h-6.64v9.219h7.265v1.875h-7.265v2.656h-1.875v-2.656h-7.5v-1.875h7.5zm-7.422-6.953l1.797-.86 3.125 5.313-1.72 1.015-3.202-5.468zm13.36 5.39l-1.641-1.093 3.359-5.391 1.484 1.172-3.203 5.312zm23.046 6.094h-16.094V9.141h16.094v9.687zm-2.031-1.953v-5.781h-12.031v5.781h12.03zm1.094-13.516l1.25 1.954v1.875H121.64V5.313h.703l2.11-2.813 2.03.313-1.953 2.5h11.64L135 3.516l2.188-.157z" fill="#FFF" fill-rule="nonzero"/></svg>