<svg width="30" height="32" xmlns="http://www.w3.org/2000/svg"><defs><linearGradient x1="-45.188%" y1="62.519%" x2="280.075%" y2="5.061%" id="a"><stop stop-color="#150DD0" offset="0%"/><stop stop-color="#285ECB" offset="28.23%"/><stop stop-color="#1890FF" offset="46.061%"/><stop stop-color="#47D5EB" offset="75%"/><stop stop-color="#4FF4F3" offset="91.02%"/><stop stop-color="#52FFF6" offset="100%"/></linearGradient><linearGradient x1="-60.45%" y1="50%" x2="100%" y2="50%" id="b"><stop stop-color="#0084FF" offset="0%"/><stop stop-color="#2CFFE4" offset="100%"/></linearGradient></defs><g fill="none" fill-rule="evenodd"><path d="M-3-1.556h36v36H-3z"/><path d="M30.125 15.75l1.802 1.081a.75.75 0 010 1.288L18 26.474 4.072 18.118a.75.75 0 010-1.287l1.803-1.081L18 23.025l12.125-7.275zm0 7.05l1.802 1.081a.75.75 0 010 1.288l-13.154 7.893a1.5 1.5 0 01-1.546 0L4.072 25.169a.75.75 0 010-1.288L5.875 22.8 18 30.075 30.125 22.8z" fill="url(#a)" fill-rule="nonzero" transform="translate(-3 -1.556)"/><path d="M18.771 1.964l13.156 7.893a.75.75 0 010 1.287L18 19.5 4.072 11.143a.75.75 0 010-1.287l13.155-7.893a1.5 1.5 0 011.546 0h-.002z" fill="url(#b)" fill-rule="nonzero" transform="translate(-3 -1.556)"/></g></svg>