<svg width="25" height="22" xmlns="http://www.w3.org/2000/svg"><defs><linearGradient x1="50%" y1="0%" x2="50%" y2="100%" id="a"><stop stop-color="#FF6F6F" offset="0%"/><stop stop-color="#E45446" offset="100%"/></linearGradient></defs><path d="M19.838 0a.61.61 0 01.513.28l1.768 2.766a.244.244 0 01-.205.375H7.044a.326.326 0 00-.274.15L4.54 7.058a.243.243 0 00.205.375h4.74c.135 0 .251.096.277.23l2.646 13.676a.07.07 0 00.036.05.604.604 0 01-.424-.206L.334 7.777a.609.609 0 01-.054-.728L4.608.28A.609.609 0 015.121 0h14.717zm4.551 7.433c.21 0 .321.246.184.404L12.938 21.183a.604.604 0 01-.423.205.069.069 0 00.036-.05l2.646-13.676a.283.283 0 01.277-.229h8.915z" transform="translate(0 .5)" fill="url(#a)" fill-rule="nonzero"/></svg>