<?xml version="1.0" encoding="UTF-8"?>
<svg width="63px" height="24px" viewBox="0 0 63 24" version="1.1" xmlns="http://www.w3.org/2000/svg" xmlns:xlink="http://www.w3.org/1999/xlink">
    <!-- Generator: Sketch 56.2 (81672) - https://sketch.com -->
    <title>tag</title>
    <desc>Created with Sketch.</desc>
    <g id="不良资产平台" stroke="none" stroke-width="1" fill="none" fill-rule="evenodd">
        <g id="列表-状态" transform="translate(-510.000000, -943.000000)">
            <g id="tag备份-6" transform="translate(541.500000, 955.000000) rotate(-360.000000) translate(-541.500000, -955.000000) translate(495.000000, 911.000000)">
                <g id="tag" transform="translate(46.548693, 43.991048) rotate(-22.000000) translate(-46.548693, -43.991048) translate(10.048693, 11.491048)">
                    <path d="M13.1061691,26.8086644 C11.1979814,27.8764888 6.63999812,28.8621973 4.66365514,28.4119764 C6.05110116,26.9006666 8.63707135,27.5636767 9.98791414,26.5107999 C11.2203912,26.310817 12.5318724,25.9895232 13.1061691,26.8086644 L13.1061691,26.8086644 Z M23.1077599,25.0669884 L15.0910968,26.7712719 L14.8173921,25.4847072 C17.1529221,25.5155644 21.3961691,23.7041779 23.1077599,25.0669884 Z M29.8994891,22.2783628 C30.4306222,22.8418041 31.9864794,21.8142482 32.2871217,22.7318134 C32.8424273,22.5670494 32.559123,21.8549208 33.0053984,21.6183306 C42.088106,19.7271183 53.9788251,17.1323488 64.2439153,14.9786236 C65.3917544,16.3992513 64.5024168,19.7730307 66.1327848,22.0697409 C66.2435478,22.6689361 65.6311086,22.796086 65.4145991,23.1820834 L68.3060195,36.7849119 C63.2097684,37.6156321 57.2297453,39.6432536 52.3348325,39.7950324 C53.0262896,38.8104699 53.8331886,39.0075645 54.89249,39.251667 C55.6158772,39.0918307 55.4774159,38.3680844 55.975891,38.0612942 C59.0167871,37.5572011 64.6640594,36.2301628 67.6670995,35.5763774 C66.1473788,28.8294203 65.145066,23.6198525 63.603961,16.4594109 C52.1298057,18.7700005 40.2731266,21.6743697 29.0383362,23.6145586 C28.4258632,22.5807425 29.9269222,22.9294348 29.9001551,22.2786455 L29.8994891,22.2783628 Z M26.9371996,24.2184753 C27.426742,24.0206873 28.7312396,23.4936361 28.5818153,23.5540074 C28.0922729,23.7517953 26.7877753,24.2788466 26.9371996,24.2184753 L26.9371996,24.2184753 Z M5.60448437,29.7482759 C7.16192219,36.6322901 8.18652315,41.6115825 9.83793033,47.8677603 C16.8891676,46.7802097 24.4934839,44.2276587 31.1070854,43.7313235 C34.5338569,42.8329505 37.040659,41.8288182 40.7583048,41.6886253 C41.3157863,41.0826486 44.1559483,40.0339202 44.3467719,41.5018525 C44.3109095,42.5029538 42.9823015,41.8026187 42.5204028,41.8899146 C31.5549376,45.1140231 20.535242,46.6854874 8.83276075,49.4265779 C7.52905592,42.6993932 5.49837259,35.1507464 5.05670685,29.864751 L5.60448437,29.7482759 Z M47.4701619,39.8692611 C48.1239309,40.2910043 49.9669122,39.8989894 50.3935091,39.2476738 C50.3908448,39.6576313 50.7278098,39.5424569 51.0193264,39.4991691 L51.2145169,40.4179549 C49.5318114,40.0703672 48.5699129,40.9291299 46.8302077,41.3500485 L46.6343512,40.43098 C46.9625338,40.2763137 47.7891982,40.4472133 47.4701619,39.8692611 L47.4701619,39.8692611 Z" id="形状" fill-opacity="0.25" fill="#000000" fill-rule="nonzero" transform="translate(36.484837, 32.202601) rotate(34.000000) translate(-36.484837, -32.202601) "></path>
                    <polygon id="矩形" fill-opacity="0.8" fill="#ECECEC" transform="translate(36.474299, 32.253090) rotate(22.000000) translate(-36.474299, -32.253090) " points="8.94633578 23.990117 64.0022626 23.990117 64.0022626 40.5160624 8.94633578 40.5160624"></polygon>
                    <path d="M29.7304734,32.1254584 L23.4504734,32.1254584 L23.4504734,35.0754584 C23.4504734,35.5154584 23.6804734,35.7454584 24.1404734,35.7454584 L29.1604734,35.7454584 C29.4004734,35.7454584 29.6004734,35.6854584 29.7504734,35.5654584 C29.9504734,35.3854584 30.0804734,34.7454584 30.1404734,33.6454584 L30.8404734,33.8654584 C30.7404734,35.1054584 30.5704734,35.8454584 30.3304734,36.1054584 C30.1104734,36.3154584 29.7804734,36.4254584 29.3604734,36.4454584 L23.9404734,36.4454584 C23.1304734,36.4454584 22.7304734,36.0254584 22.7304734,35.2054584 L22.7304734,29.9554584 L23.4504734,29.9554584 L23.4504734,31.4354584 L29.0004734,31.4354584 L29.0004734,28.8254584 L22.3304734,28.8254584 L22.3304734,28.1254584 L29.7304734,28.1254584 L29.7304734,32.1254584 Z M31.9304734,28.1254584 L40.8204734,28.1254584 L40.8204734,28.8354584 L36.4804734,28.8354584 L36.4804734,30.3454584 C37.7204734,30.9654584 38.9804734,31.6854584 40.2604734,32.5054584 L39.8304734,33.1454584 C38.5004734,32.2654584 37.3804734,31.5854584 36.4804734,31.1054584 L36.4804734,36.7854584 L35.7504734,36.7854584 L35.7504734,28.8354584 L31.9304734,28.8354584 L31.9304734,28.1254584 Z M45.3604734,34.7754584 L45.3604734,35.4654584 C44.3804734,35.8454584 43.2604734,36.1554584 42.0004734,36.3854584 L41.9104734,35.6854584 C43.2304734,35.4654584 44.3804734,35.1554584 45.3604734,34.7754584 Z M43.5804734,27.5454584 L44.2704734,27.8154584 C43.7604734,29.1154584 43.2404734,30.1554584 42.7204734,30.9354584 C43.1704734,30.8954584 43.6204734,30.8354584 44.0704734,30.7654584 C44.2504734,30.4054584 44.4504734,30.0254584 44.6504734,29.6254584 L45.2904734,29.8654584 C44.4104734,31.5554584 43.6704734,32.7554584 43.0904734,33.4654584 C43.8104734,33.3254584 44.5304734,33.1354584 45.2504734,32.8954584 L45.2504734,33.5454584 C44.2004734,33.8854584 43.2004734,34.1254584 42.2404734,34.2554584 L42.0404734,33.5954584 C42.1704734,33.5354584 42.2804734,33.4654584 42.3704734,33.3854584 C42.7404734,33.0054584 43.1904734,32.3454584 43.7104734,31.4154584 C43.1604734,31.4954584 42.6004734,31.5654584 42.0404734,31.6354584 L41.8704734,30.9754584 C41.9804734,30.9354584 42.0804734,30.8454584 42.1704734,30.7154584 C42.7104734,29.7954584 43.1804734,28.7354584 43.5804734,27.5454584 Z M50.2104734,29.3654584 L50.3104734,30.0254584 L47.7404734,30.3854584 C47.7604734,30.8654584 47.7904734,31.3154584 47.8304734,31.7454584 L50.4804734,31.3254584 L50.5904734,32.0054584 L47.9104734,32.4254584 C47.9304734,32.6054584 47.9604734,32.7854584 47.9904734,32.9454584 C48.0904734,33.4654584 48.2104734,33.9154584 48.3504734,34.3154584 C48.8904734,33.8154584 49.3704734,33.2554584 49.7904734,32.6154584 L50.3604734,33.0054584 C49.8304734,33.7754584 49.2604734,34.4354584 48.6404734,34.9754584 C48.6804734,35.0354584 48.7104734,35.1054584 48.7504734,35.1654584 C49.0804734,35.6554584 49.3704734,35.9054584 49.6304734,35.9054584 C49.8904734,35.9054584 50.1204734,35.3654584 50.3004734,34.2954584 L50.9104734,34.6954584 C50.6304734,36.0154584 50.2304734,36.6854584 49.7104734,36.6854584 C49.2304734,36.6654584 48.7804734,36.3654584 48.3504734,35.7654584 C48.2604734,35.6454584 48.1804734,35.5254584 48.1204734,35.3954584 C47.3804734,35.9454584 46.5804734,36.3554584 45.7304734,36.6154584 L45.3104734,36.0354584 C46.2304734,35.7354584 47.0604734,35.3154584 47.8004734,34.7654584 C47.6104734,34.3254584 47.4604734,33.8454584 47.3404734,33.3054584 C47.2804734,33.0454584 47.2404734,32.7954584 47.2004734,32.5354584 L45.4004734,32.8254584 L45.3004734,32.1454584 L47.1104734,31.8554584 C47.0604734,31.4254584 47.0304734,30.9654584 47.0204734,30.4854584 L45.5804734,30.6954584 L45.4704734,30.0354584 L47.0004734,29.8154584 L47.0004734,27.5954584 L47.7204734,27.5954584 L47.7204734,29.7154584 L50.2104734,29.3654584 Z M48.8404734,27.5654584 C49.3504734,28.0454584 49.7404734,28.4554584 50.0204734,28.8054584 L49.4604734,29.1954584 C49.1804734,28.8054584 48.7804734,28.3754584 48.2804734,27.9154584 L48.8404734,27.5654584 Z" id="已下线" fill-opacity="0.3" fill="#000000" fill-rule="nonzero" transform="translate(36.620473, 32.165458) rotate(22.000000) translate(-36.620473, -32.165458) "></path>
                </g>
            </g>
        </g>
    </g>
</svg>