<svg version="1.1" id="图层_1" xmlns="http://www.w3.org/2000/svg" x="0" y="0" viewBox="0 0 140 140" xml:space="preserve"><style>.st0{fill-rule:evenodd;clip-rule:evenodd;fill:#b50029}</style><path class="st0" d="M70.2 16.7c1.1 0 2.3 0 3.4.1v51.1c0 6.3 3.4 9.5 10.1 9.5h23.2v12.9c0 2.1-1.3 3.3-3.6 3.3H84.8l-6.8-.1v-.1h-4.2l-13.4.1c-2.5 0-3.7-.9-3.7-2.6V77.4h3.4c6.6-.1 9.9-3.2 9.9-9.3V54.3c-.1-6.3-3.5-9.4-10.2-9.4H23.2c9-16.8 26.7-28.2 47-28.2zm3.7 84.5H59.6c-6.7 0-10.1-3.1-10.1-9.4V77.4h-13v33.9c9.2 7.5 20.9 12 33.7 12 29.4 0 53.3-23.9 53.3-53.3 0-11.4-3.6-21.9-9.6-30.6v52.3c-.1 6.4-3.4 9.6-9.8 9.6H73.9v-.1zm-44.4 3.2V69.5h29.2c2.5 0 3.7-.8 3.7-2.3V55.8c0-1.7-1.3-2.6-3.7-2.6h-39v-.4C17.9 58.2 16.9 64 16.9 70c0 13.1 4.7 25.1 12.6 34.4zm51.4-86.6v49.7c0 1.5 1.2 2.3 3.7 2.3h22.1V31.2c-6.9-6.6-15.9-11.4-25.8-13.4z"/><path class="st0" d="M70 7.3c34.6 0 62.7 28.1 62.7 62.7s-28.1 62.7-62.7 62.7S7.3 104.6 7.3 70 35.4 7.3 70 7.3zm0 4.3c-32.3 0-58.4 26.2-58.4 58.4 0 32.3 26.2 58.4 58.4 58.4s58.4-26.2 58.4-58.4c0-32.3-26.1-58.4-58.4-58.4z"/></svg>