<svg width="160" height="33" xmlns="http://www.w3.org/2000/svg"><defs><linearGradient x1="50%" y1="0%" x2="50%" y2="100%" id="a"><stop stop-color="#D8E5EF" offset="0%"/><stop stop-color="#B0C6DB" offset="100%"/></linearGradient></defs><g fill="none"><path d="M17.848 8.725l-.407 1.269h-1.585v5.954h-4.472l.406-1.242h1.748V9.994h-5.63v-1.27h5.63V6.707h-5.63V5.463h3.11V3.08H8.782V1.838l2.236-.026V.052h2.317v1.76h3.618l-.406 1.243-3.212.026v2.382h4.513l-.407 1.243h-1.585v2.019h1.992zM3.435 1.475L3.03 3.703h.549V.052h2.317v3.65l1.362-.026-.407 1.269h-.955v4.35l1.037-.311v1.476l-1.037.336v5.049H3.578v-4.35L.325 12.531v-1.528l3.253-.984V4.945h-.773L2.46 6.783H0l.976-5.307h2.46zm7.156 9.425l1.158 3.365H9.432L8.273 10.9h2.318zm26.67-2.097h-3.212v7.145h-2.338V8.803h-3.435V7.586h3.435V4.324h-1.463l-.407 2.433h-2.46l.895-5.592h2.48l-.305 1.89h1.26V.052h2.338v3.003h3.76l-.508 1.269H34.05v3.262h3.76l-.548 1.217zM24.088 4.608h2.948v5.36l-3.293 5.98h-2.338l1.87-3.391h-.792L20.836 9.01h2.419l.915 1.941.549-.983V6.032h-.935l-.488 2.123h-2.541l1.28-5.721h-1.524V1.01h6.87v1.424h-2.784l-.509 2.174zm4.534 4.894h2.5l-.935 6.11h-2.46l.895-6.11zm9.37 6.11h-2.459l-.935-6.11h2.5l.895 6.11zM48.259 1.01h10.266l-.65 2.744h-2.501l.366-1.527h-2.887v2.2l-.223.181h2.54l3.151 3.65h-2.744l-3.07-3.572-5 3.702h-3.212l6.078-4.867V2.227h-2.398l-.529 2.226h-2.52L46.001.026h2.5l-.244.984zm-6.952 7.715h16.445v4.841h-2.358V9.968h-11.73v3.598h-2.358V8.725zm5.997 1.527h3.11l-6.037 5.722h-3.13l6.057-5.722zm6.708 5.722L49.54 12.22l1.606-1.398 6.708 5.152H54.01zM42.505 4.246L40.615.699h2.46l1.85 3.547h-2.42zm.529 4.065h-2.42l1.85-3.547h2.46l-1.89 3.547zM61.37 16l1.423-3.47V5.878h3.496l-.996-3.03h2.622l1.017 3.03h3.557l.996-3.03h2.643l-1.017 3.03h3.334l-.712 1.191H65.516v5.825L64.337 16H61.37zm1.28-14.887h6.18V0h3.008v1.113h6.282l-.55 1.243H62.65V1.113zM98 15.923H82.998V7.248H81.84V4.945h7.541l-.122-.414h2.257l.122.414h7.074l-.204 2.408h-.996v3.417H85.336v.958h10.59l-.507 1.191h-9.961v1.76h10.49v-2.95H98v4.193zM83.63 4.142h-2.562L83.1.077h2.622l-.488.932h5.306l-.468 1.217h-1.179l1.037 1.838L91.902.078h2.764l-.426.932h5.143l-.448 1.217h-1.24l1.078 1.915h-2.5l-1.078-1.915h-1.728L92.43 4.142h-4.96l-1.077-1.915h-1.728L83.63 4.142zm.467 2.096v.958H95.44l-.508 1.191h-9.473v1.14H95.46v-2.33h.895l.183-.959H84.096zm33.947 9.683h-9.533v-1.216h3.943v-2.693h-3.577v-1.217h3.577V8.984h-3.516V.052h2.317v.026h4.655l-.528 1.242h-.61v2.59h1.138V.051h2.317v8.932h-3.455v1.812h3.415l-.488 1.217h-2.927v2.693h3.78l-.508 1.216zM106.58 1.89v4.66h1.463l-.508 1.243h-.955v5.929l1.565-.363v1.243l-5.57 1.165V14.55l1.748-.362V7.793h-1.606V6.55h1.606V1.89h-1.748V.595h5.854L107.9 1.89h-1.321zm4.675 5.877h1.2v-2.64h-1.2v2.64zm0-3.858h1.2V1.32h-1.2v2.59zm3.517 3.858h1.138v-2.64h-1.138v2.64zm25.003 1.786l-.529 1.191h-7.379v5.204h-2.195v-5.204h-7.684v-1.19h7.684V1.242h-6.424V.026h15.287l-.508 1.217h-6.16v8.31h7.908zm-6.586-.854l1.26-6.524h2.277l-1.281 6.524h-2.256zm-4.777 0h-2.277l-1.321-6.524h2.317l1.28 6.524zm31.487-1.89v9.01h-17.34v-9.01h17.34zm-2.419.052l-.528 1.165h-11.973v6.654h12.501V6.86zm-15.042-.906l1.687-5.8h2.5l-1.321 4.583h12.095l-.976-3.081h2.196L160 5.955h-2.216l-.366-1.191-.427 1.19h-14.554z" fill="url(#a)"/><path d="M3.66 25.525a1.305 1.305 0 00-.426-.49 1.13 1.13 0 00-.65-.182 1.68 1.68 0 00-.369.043 1.126 1.126 0 00-.336.133c-.1.06-.18.137-.24.23a.61.61 0 00-.09.341c0 .235.081.405.245.512.163.107.409.2.736.277l.714.171a1.7 1.7 0 01.87.475c.23.238.346.535.346.89a1.4 1.4 0 01-.165.699 1.41 1.41 0 01-.437.48 1.87 1.87 0 01-.624.272 3.023 3.023 0 01-.715.085c-.384 0-.741-.073-1.072-.218-.33-.146-.613-.397-.848-.752l.608-.416c.142.227.322.409.539.544.217.135.474.202.773.202.142 0 .285-.016.427-.048a1.24 1.24 0 00.378-.149c.11-.068.2-.155.267-.261a.683.683 0 00.101-.374c0-.249-.092-.428-.277-.538a2.431 2.431 0 00-.672-.262l-.683-.16a4.574 4.574 0 01-.346-.106 1.642 1.642 0 01-.427-.224c-.139-.1-.258-.23-.357-.39a1.1 1.1 0 01-.15-.592 1.325 1.325 0 01.57-1.141 1.92 1.92 0 01.593-.272c.22-.06.448-.09.683-.09.348 0 .672.067.97.202.3.135.53.366.694.693l-.63.416zm7.343 1.312c0-.277-.045-.537-.134-.778a1.778 1.778 0 00-.97-1.05 1.905 1.905 0 00-.784-.156 1.976 1.976 0 00-1.43.576 1.905 1.905 0 00-.416.63c-.1.241-.149.501-.149.778 0 .278.05.537.15.779a1.905 1.905 0 001.045 1.05 2 2 0 00.8.155c.291 0 .553-.051.784-.154a1.778 1.778 0 00.97-1.051c.09-.242.134-.501.134-.779zm-4.555-2.496h.704v.832h.021c.114-.17.25-.316.406-.437.156-.12.32-.22.49-.299a2.34 2.34 0 01.528-.17 2.82 2.82 0 011.59.144c.323.131.602.314.837.549.235.235.418.512.55.832.13.32.197.668.197 1.045 0 .377-.066.726-.198 1.046-.131.32-.314.597-.549.832a2.502 2.502 0 01-.837.549 2.82 2.82 0 01-1.59.144 2.347 2.347 0 01-.528-.17 2.517 2.517 0 01-.49-.3 1.832 1.832 0 01-.406-.437h-.021v3.904h-.704v-8.064zm11.289 2.112c0-.476-.142-.862-.427-1.157-.284-.295-.682-.443-1.194-.443-.228 0-.448.045-.662.134-.213.089-.4.208-.56.357-.16.15-.288.32-.384.512a1.32 1.32 0 00-.144.597h3.37zm-3.392.576c.021.25.082.484.181.704a1.857 1.857 0 00.96.95c.214.092.445.138.694.138.376 0 .702-.087.976-.261.273-.174.481-.375.624-.603l.544.448c-.3.377-.628.647-.987.811-.36.164-.745.245-1.157.245a2.65 2.65 0 01-1.03-.197 2.411 2.411 0 01-.816-.55 2.602 2.602 0 01-.538-.831 2.723 2.723 0 01-.198-1.046c0-.377.064-.725.192-1.045a2.53 2.53 0 01.534-.832 2.452 2.452 0 011.792-.747c.376 0 .714.068 1.013.203.299.135.55.315.752.539.203.224.357.487.464.789.107.302.16.624.16.965v.32h-4.16zm9.966-1.514a1.505 1.505 0 00-.507-.47 1.43 1.43 0 00-.74-.192 1.847 1.847 0 00-.785.139 1.716 1.716 0 00-.965 1.05c-.086.246-.128.51-.128.795 0 .285.042.55.128.795a1.716 1.716 0 00.965 1.05c.231.1.493.146.784.14a1.504 1.504 0 001.248-.662l.576.437a2.37 2.37 0 01-.843.646c-.312.138-.64.211-.98.218a2.788 2.788 0 01-1.1-.186 2.432 2.432 0 01-.837-.55 2.348 2.348 0 01-.528-.837 2.978 2.978 0 01-.181-1.05c0-.378.06-.728.181-1.051.121-.324.297-.603.528-.838.231-.234.51-.417.837-.549a2.788 2.788 0 011.1-.187c.34.007.668.08.98.219.313.139.594.354.843.645l-.576.438zm3.417-3.094a.47.47 0 01-.16.368.515.515 0 01-.352.144.515.515 0 01-.352-.144.473.473 0 01-.16-.368c0-.149.053-.272.16-.368a.515.515 0 01.352-.144c.128 0 .245.048.352.144.107.096.16.219.16.368zm-.16 6.912h-.704v-4.992h.704v4.992zm5.422-2.485c-.178 0-.4.009-.666.027a3.85 3.85 0 00-.768.128 1.69 1.69 0 00-.63.314.716.716 0 00-.261.587.83.83 0 00.101.421.843.843 0 00.272.288c.114.075.24.128.379.16s.279.048.421.048c.256 0 .478-.042.667-.128.188-.085.347-.2.475-.346.128-.146.222-.317.282-.512.06-.196.09-.404.09-.624v-.363h-.362zm.363-.576v-.128c0-.86-.427-1.29-1.28-1.29-.583 0-1.092.195-1.525.586l-.427-.501c.47-.484 1.173-.726 2.112-.726a2.3 2.3 0 01.699.107c.224.071.417.18.58.325.164.146.296.33.396.55.1.22.149.483.149.789v2.23c0 .191.009.392.027.602.017.21.037.382.058.517h-.682a4 4 0 01-.048-.394 5.564 5.564 0 01-.016-.416h-.022c-.206.334-.45.574-.73.72-.281.145-.624.218-1.03.218-.22 0-.434-.03-.64-.09a1.633 1.633 0 01-.55-.278 1.41 1.41 0 01-.383-.458 1.337 1.337 0 01-.144-.635c0-.405.105-.724.315-.955.21-.23.472-.403.789-.517a3.89 3.89 0 011.013-.213c.36-.029.688-.043.987-.043h.352zm4.089 3.061h-.704V21.27h.704v8.064zm9.276-2.485c-.178 0-.4.009-.666.027a3.85 3.85 0 00-.768.128 1.69 1.69 0 00-.63.314.716.716 0 00-.261.587.83.83 0 00.101.421.843.843 0 00.272.288c.114.075.24.128.379.16s.279.048.421.048c.256 0 .478-.042.667-.128.188-.085.347-.2.475-.346.128-.146.222-.317.282-.512.06-.196.09-.404.09-.624v-.363h-.362zm.363-.576v-.128c0-.86-.427-1.29-1.28-1.29-.583 0-1.092.195-1.525.586l-.427-.501c.47-.484 1.173-.726 2.112-.726a2.3 2.3 0 01.699.107c.224.071.417.18.58.325.164.146.296.33.396.55.1.22.149.483.149.789v2.23c0 .191.009.392.027.602.017.21.037.382.058.517h-.682a4 4 0 01-.048-.394 5.564 5.564 0 01-.016-.416h-.022c-.206.334-.45.574-.73.72-.281.145-.624.218-1.03.218-.22 0-.434-.03-.64-.09a1.633 1.633 0 01-.55-.278 1.41 1.41 0 01-.383-.458 1.337 1.337 0 01-.144-.635c0-.405.105-.724.315-.955.21-.23.472-.403.789-.517a3.89 3.89 0 011.013-.213c.36-.029.688-.043.987-.043h.352zm5.87-.747a1.305 1.305 0 00-.427-.49 1.13 1.13 0 00-.65-.182c-.121 0-.244.015-.368.043a1.126 1.126 0 00-.336.133c-.1.06-.18.137-.24.23a.61.61 0 00-.09.341c0 .235.08.405.244.512.164.107.41.2.736.277l.715.171a1.7 1.7 0 01.87.475c.23.238.346.535.346.89a1.4 1.4 0 01-.165.699c-.11.196-.256.356-.438.48a1.87 1.87 0 01-.624.272 3.023 3.023 0 01-.714.085c-.384 0-.742-.073-1.072-.218-.33-.146-.614-.397-.848-.752l.608-.416c.142.227.322.409.538.544.217.135.475.202.774.202.142 0 .284-.016.426-.048a1.24 1.24 0 00.38-.149.83.83 0 00.266-.261.683.683 0 00.101-.374c0-.249-.092-.428-.277-.538a2.431 2.431 0 00-.672-.262l-.683-.16a4.574 4.574 0 01-.347-.106 1.642 1.642 0 01-.426-.224 1.36 1.36 0 01-.358-.39 1.1 1.1 0 01-.149-.592 1.325 1.325 0 01.57-1.141 1.92 1.92 0 01.593-.272c.22-.06.448-.09.682-.09.349 0 .672.067.971.202.299.135.53.366.693.693l-.629.416zm5.433 0a1.305 1.305 0 00-.427-.49 1.13 1.13 0 00-.65-.182c-.121 0-.244.015-.368.043a1.126 1.126 0 00-.336.133c-.1.06-.18.137-.24.23a.61.61 0 00-.091.341c0 .235.082.405.245.512.164.107.41.2.736.277l.715.171a1.7 1.7 0 01.87.475c.23.238.346.535.346.89a1.4 1.4 0 01-.165.699c-.11.196-.256.356-.438.48a1.87 1.87 0 01-.624.272 3.023 3.023 0 01-.714.085c-.384 0-.742-.073-1.072-.218-.331-.146-.614-.397-.848-.752l.608-.416c.142.227.321.409.538.544.217.135.475.202.774.202.142 0 .284-.016.426-.048a1.24 1.24 0 00.379-.149c.11-.068.2-.155.267-.261a.683.683 0 00.101-.374c0-.249-.092-.428-.277-.538a2.431 2.431 0 00-.672-.262l-.683-.16a4.574 4.574 0 01-.347-.106 1.642 1.642 0 01-.426-.224 1.36 1.36 0 01-.358-.39 1.1 1.1 0 01-.149-.592 1.325 1.325 0 01.57-1.141 1.92 1.92 0 01.593-.272c.22-.06.448-.09.682-.09.349 0 .672.067.971.202.299.135.53.366.693.693l-.629.416zm6.67.928c0-.476-.142-.862-.426-1.157-.285-.295-.683-.443-1.195-.443-.228 0-.448.045-.661.134-.214.089-.4.208-.56.357-.16.15-.288.32-.384.512a1.32 1.32 0 00-.144.597h3.37zm-3.392.576c.022.25.082.484.182.704.1.22.23.411.394.571.164.16.352.286.566.379.213.092.444.138.693.138.377 0 .702-.087.976-.261.274-.174.482-.375.624-.603l.544.448c-.299.377-.628.647-.987.811a2.752 2.752 0 01-1.157.245 2.65 2.65 0 01-1.03-.197 2.411 2.411 0 01-.815-.55 2.602 2.602 0 01-.54-.831 2.723 2.723 0 01-.196-1.046c0-.377.064-.725.192-1.045a2.53 2.53 0 01.533-.832 2.452 2.452 0 011.792-.747c.377 0 .715.068 1.013.203.299.135.55.315.752.539.203.224.358.487.464.789.107.302.16.624.16.965v.32h-4.16zm8.91-2.048h-1.44v2.944c0 .185.018.336.054.454a.64.64 0 00.15.272.51.51 0 00.228.133c.09.025.187.037.294.037.12 0 .245-.017.373-.053s.245-.082.352-.139l.032.651c-.263.12-.58.181-.95.181-.134 0-.275-.017-.42-.053a.993.993 0 01-.4-.203 1.126 1.126 0 01-.3-.405c-.077-.17-.117-.395-.117-.672v-3.147h-1.056v-.64h1.056v-1.408h.704v1.408h1.44v.64zm4.495.544a1.305 1.305 0 00-.427-.49 1.13 1.13 0 00-.65-.182 1.68 1.68 0 00-.369.043 1.126 1.126 0 00-.336.133c-.1.06-.18.137-.24.23a.61.61 0 00-.09.341c0 .235.081.405.245.512.164.107.409.2.736.277l.715.171a1.7 1.7 0 01.869.475c.231.238.347.535.347.89a1.4 1.4 0 01-.166.699 1.41 1.41 0 01-.437.48 1.87 1.87 0 01-.624.272 3.023 3.023 0 01-.715.085c-.384 0-.741-.073-1.072-.218-.33-.146-.613-.397-.848-.752l.608-.416c.143.227.322.409.539.544.217.135.475.202.773.202.143 0 .285-.016.427-.048a1.24 1.24 0 00.379-.149.82.82 0 00.266-.261.683.683 0 00.102-.374c0-.249-.093-.428-.278-.538a2.431 2.431 0 00-.672-.262l-.682-.16a4.574 4.574 0 01-.347-.106 1.642 1.642 0 01-.427-.224c-.138-.1-.257-.23-.357-.39a1.1 1.1 0 01-.15-.592 1.325 1.325 0 01.57-1.141 1.92 1.92 0 01.593-.272c.22-.06.448-.09.683-.09.348 0 .672.067.97.202.3.135.53.366.694.693l-.63.416z" fill="#FFF" opacity=".55"/></g></svg>