<svg xmlns="http://www.w3.org/2000/svg" xmlns:xlink="http://www.w3.org/1999/xlink" width="63" height="24" version="1.1" viewBox="0 0 63 24"><title>tag</title><desc>Created with Sketch.</desc><g id="不良资产平台" fill="none" fill-rule="evenodd" stroke="none" stroke-width="1"><g id="列表-状态" transform="translate(-510.000000, -727.000000)"><g id="tag备份-5" transform="translate(541.500000, 739.571429) rotate(-360.000000) translate(-541.500000, -739.571429) translate(495.000000, 695.571429)"><g id="tag" transform="translate(46.548693, 43.991048) rotate(-22.000000) translate(-46.548693, -43.991048) translate(10.048693, 11.491048)"><path id="形状" fill="#000" fill-opacity=".25" fill-rule="nonzero" d="M13.1061691,26.8086644 C11.1979814,27.8764888 6.63999812,28.8621973 4.66365514,28.4119764 C6.05110116,26.9006666 8.63707135,27.5636767 9.98791414,26.5107999 C11.2203912,26.310817 12.5318724,25.9895232 13.1061691,26.8086644 L13.1061691,26.8086644 Z M23.1077599,25.0669884 L15.0910968,26.7712719 L14.8173921,25.4847072 C17.1529221,25.5155644 21.3961691,23.7041779 23.1077599,25.0669884 Z M29.8994891,22.2783628 C30.4306222,22.8418041 31.9864794,21.8142482 32.2871217,22.7318134 C32.8424273,22.5670494 32.559123,21.8549208 33.0053984,21.6183306 C42.088106,19.7271183 53.9788251,17.1323488 64.2439153,14.9786236 C65.3917544,16.3992513 64.5024168,19.7730307 66.1327848,22.0697409 C66.2435478,22.6689361 65.6311086,22.796086 65.4145991,23.1820834 L68.3060195,36.7849119 C63.2097684,37.6156321 57.2297453,39.6432536 52.3348325,39.7950324 C53.0262896,38.8104699 53.8331886,39.0075645 54.89249,39.251667 C55.6158772,39.0918307 55.4774159,38.3680844 55.975891,38.0612942 C59.0167871,37.5572011 64.6640594,36.2301628 67.6670995,35.5763774 C66.1473788,28.8294203 65.145066,23.6198525 63.603961,16.4594109 C52.1298057,18.7700005 40.2731266,21.6743697 29.0383362,23.6145586 C28.4258632,22.5807425 29.9269222,22.9294348 29.9001551,22.2786455 L29.8994891,22.2783628 Z M26.9371996,24.2184753 C27.426742,24.0206873 28.7312396,23.4936361 28.5818153,23.5540074 C28.0922729,23.7517953 26.7877753,24.2788466 26.9371996,24.2184753 L26.9371996,24.2184753 Z M5.60448437,29.7482759 C7.16192219,36.6322901 8.18652315,41.6115825 9.83793033,47.8677603 C16.8891676,46.7802097 24.4934839,44.2276587 31.1070854,43.7313235 C34.5338569,42.8329505 37.040659,41.8288182 40.7583048,41.6886253 C41.3157863,41.0826486 44.1559483,40.0339202 44.3467719,41.5018525 C44.3109095,42.5029538 42.9823015,41.8026187 42.5204028,41.8899146 C31.5549376,45.1140231 20.535242,46.6854874 8.83276075,49.4265779 C7.52905592,42.6993932 5.49837259,35.1507464 5.05670685,29.864751 L5.60448437,29.7482759 Z M47.4701619,39.8692611 C48.1239309,40.2910043 49.9669122,39.8989894 50.3935091,39.2476738 C50.3908448,39.6576313 50.7278098,39.5424569 51.0193264,39.4991691 L51.2145169,40.4179549 C49.5318114,40.0703672 48.5699129,40.9291299 46.8302077,41.3500485 L46.6343512,40.43098 C46.9625338,40.2763137 47.7891982,40.4472133 47.4701619,39.8692611 L47.4701619,39.8692611 Z" transform="translate(36.484837, 32.202601) rotate(34.000000) translate(-36.484837, -32.202601)"/><polygon id="矩形" fill="#ECECEC" fill-opacity=".8" points="8.946 23.99 64.002 23.99 64.002 40.516 8.946 40.516" transform="translate(36.474299, 32.253090) rotate(22.000000) translate(-36.474299, -32.253090)"/><path id="已转让" fill="#AAA" fill-rule="nonzero" d="M29.6340609,32.1683636 L23.3865647,32.1683636 L23.3865647,35.1030951 C23.3865647,35.5408178 23.6153743,35.7696273 24.0729935,35.7696273 L29.0670111,35.7696273 C29.3057689,35.7696273 29.5047337,35.7099379 29.6539574,35.590559 C29.8529222,35.4114906 29.9822494,34.7748031 30.0419388,33.6804965 L30.7383158,33.8993578 C30.6388333,35.1329398 30.4697132,35.8691098 30.2309554,36.1277641 C30.0120941,36.3366771 29.6838021,36.4461078 29.2659759,36.4660043 L23.8740286,36.4660043 C23.068221,36.4660043 22.6702913,36.0481781 22.6702913,35.2324223 L22.6702913,30.0095951 L23.3865647,30.0095951 L23.3865647,31.4819349 L28.9078392,31.4819349 L28.9078392,28.8854437 L22.2723616,28.8854437 L22.2723616,28.1890667 L29.6340609,28.1890667 L29.6340609,32.1683636 Z M33.6829955,30.3975765 L34.3694242,30.3975765 L34.3694242,31.9097093 L35.4736791,31.9097093 L35.4736791,32.5563451 L34.3694242,32.5563451 L34.3694242,33.9192543 C34.8568881,33.8197719 35.3145072,33.7103412 35.7522299,33.6009105 L35.7522299,34.277391 C35.304559,34.3967699 34.8469398,34.5161488 34.3694242,34.6156312 L34.3694242,36.7743998 L33.6829955,36.7743998 L33.6829955,34.7549066 C33.0662044,34.8643373 32.4295169,34.9638197 31.7530365,35.0533539 L31.6635023,34.3470287 C32.3797757,34.2574945 33.046308,34.1580121 33.6829955,34.0485814 L33.6829955,32.5563451 L32.0116908,32.5563451 L31.8624671,31.9196576 C32.1509662,31.322763 32.4195687,30.5766449 32.6682748,29.6614066 L31.6734505,29.6614066 L31.6734505,28.9650296 L32.8473431,28.9650296 C32.9468255,28.5472035 33.0363597,28.0995326 33.1358421,27.6419134 L33.8123226,27.7413958 C33.7227884,28.1691703 33.6332543,28.5770482 33.5437201,28.9650296 L35.4338861,28.9650296 L35.4338861,29.6614066 L33.3646517,29.6614066 C33.1258939,30.5169554 32.8672396,31.2630736 32.5886888,31.9097093 L33.6829955,31.9097093 L33.6829955,30.3975765 Z M35.8915052,28.9650296 L37.4533793,28.9650296 C37.5329652,28.527307 37.6125512,28.0796361 37.6921371,27.6220169 L38.3984623,27.6916546 C38.3188764,28.1293773 38.2492387,28.5571517 38.1696527,28.9650296 L40.5870756,28.9650296 L40.5870756,29.6614066 L38.0303773,29.6614066 L37.771723,30.8054545 L40.8357816,30.8054545 L40.8357816,31.4918832 L37.6026029,31.4918832 C37.483224,31.9495023 37.3538969,32.3673285 37.2245697,32.7553099 L40.398059,32.7553099 L40.398059,33.3522045 C40.0598188,34.0286849 39.5425102,34.7051654 38.836185,35.3816459 C39.2440629,35.6303519 39.6320443,35.8890062 40.0001293,36.167557 L39.6021996,36.7743998 C38.5675824,35.9785404 37.5031205,35.3418529 36.4088138,34.8842338 L36.7868471,34.317184 C37.3041556,34.5360453 37.7916195,34.7847514 38.2492387,35.0434057 C38.8461332,34.5161488 39.3137006,33.9689955 39.6618891,33.3919974 L36.3292279,33.3919974 C36.5281928,32.7752064 36.7172094,32.1484672 36.8863295,31.4918832 L35.6030062,31.4918832 L35.6030062,30.8054545 L37.0554496,30.8054545 C37.1449838,30.417473 37.234518,30.0394398 37.3141039,29.6614066 L35.8915052,29.6614066 L35.8915052,28.9650296 Z M47.133019,27.6618099 L47.8691889,27.6618099 L47.8691889,30.8750921 L50.4557319,30.8750921 L50.4557319,31.5714691 L47.8691889,31.5714691 L47.8691889,35.7397826 L50.8337651,35.7397826 L50.8337651,36.4461078 L44.9742504,36.4461078 L44.9742504,35.7397826 L47.133019,35.7397826 L47.133019,27.6618099 Z M42.8353783,27.7413958 C43.5118588,28.2587044 44.0789086,28.776013 44.5365278,29.2933216 L44.0490639,29.7907337 C43.6312377,29.2933216 43.0542397,28.776013 42.3379662,28.2288597 L42.8353783,27.7413958 Z M41.671434,30.705972 L43.8202543,30.705972 L43.8202543,35.1528363 C44.178391,34.8643373 44.5564243,34.5260971 44.9643022,34.1381156 L45.1533188,34.894182 C44.5365278,35.4711801 43.8699955,35.9884887 43.1736186,36.4361596 L42.905016,35.7994721 C43.0542397,35.6800932 43.1338256,35.5408178 43.1338256,35.4015424 L43.1338256,31.3924007 L41.671434,31.3924007 L41.671434,30.705972 Z" transform="translate(36.553063, 32.198208) rotate(22.000000) translate(-36.553063, -32.198208)"/></g></g></g></g></svg>